<?xml version="1.0" encoding="utf-8"?>
<!-- Svg Vector Icons : http://www.onlinewebfonts.com/icon -->
<!DOCTYPE svg PUBLIC "-//W3C//DTD SVG 1.1//EN" "http://www.w3.org/Graphics/SVG/1.1/DTD/svg11.dtd">
<svg version="1.1" xmlns="http://www.w3.org/2000/svg" xmlns:xlink="http://www.w3.org/1999/xlink" x="0px" y="0px" viewBox="0 0 256 256" enable-background="new 0 0 256 256" xml:space="preserve">
<metadata> Svg Vector Icons : http://www.onlinewebfonts.com/icon </metadata>
<g><g><path fill="#000000" d="M205.8,223.5h-156c-22,0-39.9-18.2-39.9-40.5V72.8c0-22.2,17.9-40.2,39.9-40.2h156c22.2,0,40.2,18,40.2,40.2v110.2C246,205.3,228,223.5,205.8,223.5z M49.9,40.8c-17.5,0-31.6,14.3-31.6,32V183c0,17.8,14.2,32.3,31.6,32.3h156c17.6,0,32-14.5,32-32.3V72.8c0-17.7-14.4-32-32-32L49.9,40.8L49.9,40.8z"/><path fill="#000000" d="M128.1,148.7c-3.1,0-6.2-0.9-9.4-2.8L13.8,64.1l5.2-6.5l104.4,81.5c2.6,1.3,6,1.8,9.3-0.2l104.1-81.3l5.2,6.5l-104.4,81.5C134.4,147.7,131.1,148.7,128.1,148.7z"/></g></g>
</svg>